<svg width="327" height="204" viewBox="0 0 327 204" fill="none" xmlns="http://www.w3.org/2000/svg">
<g opacity="0.3">
<path fill-rule="evenodd" clip-rule="evenodd" d="M138.641 31.687C136.932 30.985 135.931 29.58 135.047 28.058C133.804 25.917 132.902 23.614 131.859 21.378C131.52 20.649 131.164 19.931 130.72 19.256C130.232 18.514 130.122 17.68 130.255 16.823C130.392 15.941 130.89 15.302 131.75 15.017C132.654 14.719 133.49 14.853 134.202 15.531C134.74 16.045 135.278 16.558 135.822 17.076C135.918 16.938 135.851 16.743 135.851 16.565C135.858 13.512 135.855 10.461 135.861 7.408C135.862 6.456 136.324 5.755 137.149 5.319C137.977 4.883 138.821 4.937 139.608 5.44C140.389 5.941 140.686 6.701 140.683 7.604C140.679 9.214 140.682 10.828 140.682 12.425C140.842 12.533 140.957 12.435 141.075 12.4C142.241 12.045 143.321 12.434 143.956 13.47C144.1 13.707 144.183 13.822 144.503 13.689C145.73 13.18 146.893 13.563 147.579 14.696C147.749 14.972 147.85 14.994 148.14 14.875C149.71 14.236 151.432 15.231 151.487 16.906C151.561 19.285 151.548 21.668 151.468 24.046C151.395 26.194 150.345 27.948 148.932 29.507C148.171 30.348 147.256 31.003 146.363 31.687C143.791 31.687 141.214 31.687 138.641 31.687ZM137.05 13.087C137.05 14.873 137.046 16.657 137.051 18.442C137.051 18.792 137.08 19.153 136.661 19.308C136.276 19.452 136.056 19.193 135.826 18.954C135.043 18.136 134.255 17.324 133.475 16.5C133.095 16.099 132.657 15.942 132.127 16.145C131.607 16.343 131.43 16.779 131.406 17.287C131.383 17.755 131.472 18.208 131.736 18.605C132.339 19.521 132.79 20.512 133.243 21.504C134.124 23.436 134.928 25.404 135.981 27.254C136.475 28.121 137.007 28.962 137.716 29.677C138.273 30.239 138.916 30.522 139.72 30.507C141.083 30.478 142.465 30.357 143.804 30.531C145.708 30.78 146.99 29.927 148.112 28.59C148.394 28.253 148.681 27.915 148.933 27.555C149.686 26.486 150.239 25.317 150.265 23.998C150.317 21.677 150.291 19.354 150.284 17.032C150.281 16.359 149.77 15.89 149.097 15.89C148.439 15.889 148.036 16.246 147.885 17.023C147.81 17.412 147.595 17.626 147.224 17.587C146.886 17.552 146.69 17.314 146.697 16.944C146.703 16.638 146.701 16.331 146.697 16.023C146.687 15.239 146.265 14.733 145.574 14.674C144.927 14.615 144.423 15.044 144.289 15.788C144.221 16.163 144.038 16.391 143.643 16.373C143.232 16.354 143.091 16.072 143.08 15.709C143.066 15.307 143.094 14.899 143.055 14.5C142.998 13.913 142.518 13.498 141.928 13.476C141.328 13.453 140.832 13.821 140.704 14.391C140.675 14.521 140.665 14.656 140.623 14.783C140.538 15.054 140.328 15.192 140.059 15.187C139.788 15.182 139.577 15.032 139.506 14.763C139.457 14.58 139.457 14.384 139.455 14.195C139.453 11.967 139.444 9.742 139.46 7.514C139.464 6.944 139.231 6.551 138.718 6.339C137.88 5.988 137.061 6.58 137.052 7.556C137.038 9.401 137.05 11.244 137.05 13.087Z" fill="#666666"/>
<path fill-rule="evenodd" clip-rule="evenodd" d="M316.9 44.737H315.363V43.199H316.9V44.737ZM316.9 42.43H315.363V40.893H316.9V42.43ZM316.9 40.125H315.363V38.588H316.9V40.125ZM313.826 44.737H312.289V43.199H313.826V44.737ZM313.826 42.43H312.289V40.893H313.826V42.43ZM313.826 40.125H312.289V38.588H313.826V40.125ZM310.75 44.737H309.213V43.199H310.75V44.737ZM310.75 42.43H309.213V40.893H310.75V42.43ZM310.75 40.125H309.213V38.588H310.75V40.125ZM316.9 33.975H309.212V36.282H316.9V33.975ZM317.668 37.049H308.445V33.207H317.668V37.049ZM299.459 43.967H304.502C303.418 41.039 303.434 38.117 304.565 34.744H299.491C297.938 37.887 297.932 41.278 299.459 43.967ZM297.684 34.745V33.208H306.909V34.745H305.386C304.218 38.081 304.042 41.247 305.663 44.737H299.022C297.079 41.662 297.215 37.919 298.661 34.745H297.684ZM310.75 50.885H304.602V51.654H310.75V50.885ZM311.52 52.422H303.834V50.116H311.52V52.422ZM324.586 49.348H290.768V54.728H324.586V49.348ZM320.082 30.132H295.271L293.957 47.811H321.396L320.082 30.132ZM318.438 25.521V23.215H310.75V25.521H318.438ZM324.586 56.266H290.768C289.922 56.266 289.231 55.573 289.231 54.728V49.348C289.231 48.502 289.922 47.811 290.768 47.811H292.428C292.428 47.772 292.428 47.734 292.428 47.695L293.735 30.017C293.796 29.217 294.464 28.595 295.272 28.595H313.827V27.058H310.751C309.907 27.058 309.214 26.366 309.214 25.521V23.215C309.214 22.369 309.907 21.678 310.751 21.678H318.439C319.293 21.678 319.976 22.369 319.976 23.215V25.521C319.976 26.366 319.292 27.058 318.439 27.058H315.365V28.595H320.084C320.891 28.595 321.559 29.217 321.621 30.017L322.928 47.695C322.928 47.734 322.928 47.772 322.928 47.811H324.588C325.434 47.811 326.125 48.502 326.125 49.348V54.728C326.123 55.573 325.432 56.266 324.586 56.266Z" fill="#666666"/>
<path fill-rule="evenodd" clip-rule="evenodd" d="M290.383 146.562H291.041V161.722H290.383V146.562ZM291.699 146.562H293.017V161.722H291.699V146.562ZM294.996 146.562H296.314V161.722H294.996V146.562ZM296.973 146.562H297.633V161.722H296.973V146.562ZM298.291 146.562H299.609V161.722H298.291V146.562ZM300.268 146.562H300.928V161.722H300.268V146.562ZM302.904 146.562H304.222V161.722H302.904V146.562ZM304.883 146.562H305.541V161.722H304.883V146.562ZM306.201 146.562H306.859V161.722H306.201V146.562ZM307.518 146.562H308.836V161.722H307.518V146.562ZM309.496 146.562H310.154V161.722H309.496V146.562ZM310.814 146.562H312.132V161.722H310.814V146.562ZM313.451 146.562H314.109V161.722H313.451V146.562ZM314.77 146.562H315.428V161.722H314.77V146.562ZM317.404 145.243C317.404 144.882 317.107 144.585 316.746 144.585H289.064C288.701 144.585 288.404 144.882 288.404 145.243V163.04C288.404 163.401 288.701 163.698 289.064 163.698H316.746C317.107 163.698 317.404 163.401 317.404 163.04V145.243ZM316.746 165.017H289.064C287.968 165.017 287.085 164.134 287.085 163.04V145.243C287.085 144.149 287.968 143.266 289.064 143.266H316.746C317.84 143.266 318.723 144.149 318.723 145.243V163.04C318.723 164.134 317.84 165.017 316.746 165.017Z" fill="#666666"/>
<path fill-rule="evenodd" clip-rule="evenodd" d="M263.766 178.818C263.012 178.818 262.405 179.425 262.405 180.178C262.405 180.931 263.012 181.538 263.766 181.538C264.518 181.538 265.125 180.931 265.125 180.178C265.125 179.425 264.518 178.818 263.766 178.818ZM263.766 181.992C262.764 181.992 261.952 181.179 261.952 180.179C261.952 179.177 262.765 178.366 263.766 178.366C264.767 178.366 265.579 179.178 265.579 180.179C265.578 181.18 264.768 181.992 263.766 181.992ZM279.215 187.4L268.338 176.524C268.067 176.252 267.699 176.098 267.311 176.098H261.135C260.332 176.098 259.68 176.745 259.68 177.548V183.723C259.68 184.109 259.834 184.48 260.106 184.751L270.991 195.618C271.272 195.903 271.645 196.044 272.016 196.044C272.387 196.044 272.76 195.903 273.045 195.618L279.215 189.452C279.781 188.887 279.781 187.967 279.215 187.4ZM279.857 190.098L273.683 196.263C273.24 196.707 272.644 196.951 272.015 196.951C271.384 196.951 270.794 196.707 270.347 196.263L259.466 185.397C259.019 184.948 258.773 184.359 258.773 183.724V177.549C258.773 176.248 259.834 175.192 261.134 175.192H267.31C267.945 175.192 268.533 175.437 268.982 175.885L279.857 186.761C280.779 187.682 280.779 189.177 279.857 190.098Z" fill="#666666"/>
<path fill-rule="evenodd" clip-rule="evenodd" d="M237.559 18.589C237.559 17.996 237.075 17.511 236.481 17.511H232.034H228.395V22.363H237.559V18.589ZM232.113 13.219C231.984 13.203 231.861 13.197 231.736 13.197C229.117 13.197 227.828 16.432 227.828 16.432H232.033C234.971 16.432 235.037 13.554 232.113 13.219ZM225.186 17.511H225.161V22.363H227.317V17.511H226.772H226.243H225.186ZM221.277 13.197C221.154 13.197 221.029 13.203 220.9 13.219C217.978 13.553 218.043 16.432 220.982 16.432H225.185C225.186 16.432 223.898 13.197 221.277 13.197ZM215.994 17.511C215.402 17.511 214.916 17.996 214.916 18.589V22.363H224.082V17.511H220.982H215.994ZM215.994 33.684C215.994 34.277 216.48 34.763 217.072 34.763H224.082V23.441H215.994V33.684ZM225.16 34.763H227.316V23.441H225.16V34.763ZM228.395 34.763H235.403C235.997 34.763 236.481 34.278 236.481 33.684V23.441H228.395V34.763ZM237.559 23.441V33.684C237.559 34.875 236.594 35.841 235.403 35.841H217.073C215.882 35.841 214.917 34.876 214.917 33.684V23.441C214.325 23.441 213.839 22.956 213.839 22.363V18.589C213.839 17.398 214.804 16.432 215.995 16.432H218.255C217.9 16.017 217.704 15.532 217.677 15.052C217.607 13.834 218.546 12.405 220.782 12.146C220.95 12.13 221.116 12.119 221.278 12.119C224.589 12.119 226.12 15.871 226.184 16.033L226.346 16.432H226.668L226.83 16.033C226.896 15.871 228.426 12.119 231.736 12.119C231.898 12.119 232.066 12.13 232.232 12.146C234.47 12.405 235.408 13.834 235.337 15.052C235.31 15.532 235.116 16.017 234.761 16.432H236.48C237.671 16.432 238.636 17.397 238.636 18.589V22.363C238.637 22.956 238.152 23.441 237.559 23.441Z" fill="#666666"/>
<path d="M31.006 190.911C30.965 190.911 30.925 190.907 30.884 190.899C30.548 190.831 30.329 190.504 30.397 190.168L32.185 181.23C32.252 180.894 32.576 180.675 32.916 180.743C33.252 180.81 33.47 181.138 33.403 181.474L31.615 190.412C31.556 190.707 31.296 190.911 31.006 190.911Z" fill="#666666"/>
<path d="M29.788 191.909H15.676C14.79 191.909 14.022 191.28 13.849 190.411L11.564 178.989C11.527 178.805 11.575 178.616 11.692 178.473C11.81 178.328 11.986 178.244 12.172 178.244H33.29V179.486H12.931L15.067 190.167C15.125 190.457 15.381 190.666 15.676 190.666H29.788C30.083 190.666 30.339 190.457 30.397 190.168L31.615 190.41C31.441 191.28 30.673 191.909 29.788 191.909Z" fill="#666666"/>
<path d="M33.911 179.487H11.552C10.525 179.487 9.689 178.651 9.689 177.624C9.689 176.597 10.525 175.761 11.552 175.761H33.911C34.939 175.761 35.775 176.597 35.775 177.624C35.775 178.651 34.939 179.487 33.911 179.487ZM11.552 177.003C11.209 177.003 10.931 177.282 10.931 177.624C10.931 177.967 11.209 178.245 11.552 178.245H33.911C34.254 178.245 34.532 177.967 34.532 177.624C34.532 177.282 34.254 177.003 33.911 177.003H11.552Z" fill="#666666"/>
<path d="M22.731 189.425C22.388 189.425 22.11 189.148 22.11 188.804V181.351C22.11 181.009 22.388 180.73 22.731 180.73C23.074 180.73 23.352 181.009 23.352 181.351V188.804C23.353 189.147 23.075 189.425 22.731 189.425Z" fill="#666666"/>
<path d="M26.459 189.425C26.409 189.425 26.358 189.42 26.308 189.407C25.975 189.323 25.773 188.987 25.856 188.653L27.719 181.2C27.802 180.868 28.138 180.663 28.471 180.749C28.804 180.831 29.007 181.169 28.923 181.502L27.06 188.955C26.99 189.237 26.737 189.425 26.459 189.425Z" fill="#666666"/>
<path d="M19.004 189.425C18.726 189.425 18.473 189.237 18.402 188.955L16.538 181.502C16.455 181.169 16.657 180.831 16.99 180.749C17.322 180.663 17.66 180.868 17.743 181.2L19.606 188.653C19.689 188.987 19.487 189.323 19.154 189.407C19.105 189.42 19.054 189.425 19.004 189.425Z" fill="#666666"/>
<path d="M25.838 178.245C25.629 178.245 25.425 178.141 25.308 177.95C25.129 177.657 25.22 177.275 25.511 177.096L33.586 172.127C33.879 171.946 34.261 172.038 34.44 172.33C34.619 172.622 34.528 173.005 34.237 173.184L26.163 178.153C26.061 178.216 25.949 178.245 25.838 178.245Z" fill="#666666"/>
<path d="M19.625 178.245C19.514 178.245 19.402 178.216 19.3 178.153L11.226 173.184C10.934 173.004 10.843 172.621 11.023 172.33C11.202 172.038 11.583 171.946 11.877 172.127L19.951 177.096C20.243 177.276 20.334 177.658 20.154 177.95C20.038 178.141 19.834 178.245 19.625 178.245Z" fill="#666666"/>
<path d="M14.658 56.363H2.23501C1.20801 56.363 0.372009 55.527 0.372009 54.5V40.835C0.372009 39.807 1.20801 38.972 2.23501 38.972H23.353C24.38 38.972 25.216 39.807 25.216 40.835V47.667C25.216 48.01 24.938 48.288 24.595 48.288C24.252 48.288 23.974 48.01 23.974 47.667V40.835C23.974 40.492 23.695 40.214 23.353 40.214H2.23501C1.89301 40.214 1.61401 40.492 1.61401 40.835V54.5C1.61401 54.843 1.89301 55.121 2.23501 55.121H14.657C15 55.121 15.278 55.399 15.278 55.742C15.278 56.085 15 56.363 14.658 56.363Z" fill="#666666"/>
<path d="M24.595 43.32H0.993011V47.047H24.595V43.32Z" fill="#666666"/>
<path d="M3.47801 51.394C3.13501 51.394 2.85701 51.116 2.85701 50.773V48.91C2.85701 48.567 3.13501 48.289 3.47801 48.289C3.82101 48.289 4.09901 48.567 4.09901 48.91V50.773C4.09901 51.116 3.82101 51.394 3.47801 51.394Z" fill="#666666"/>
<path d="M5.34101 51.394C4.99801 51.394 4.72001 51.116 4.72001 50.773V48.91C4.72001 48.567 4.99801 48.289 5.34101 48.289C5.68401 48.289 5.96201 48.567 5.96201 48.91V50.773C5.96201 51.116 5.68401 51.394 5.34101 51.394Z" fill="#666666"/>
<path d="M8.44601 51.394C8.10301 51.394 7.82501 51.116 7.82501 50.773V48.91C7.82501 48.567 8.10301 48.289 8.44601 48.289C8.78901 48.289 9.06701 48.567 9.06701 48.91V50.773C9.06701 51.116 8.79001 51.394 8.44601 51.394Z" fill="#666666"/>
<path d="M10.31 51.394C9.96701 51.394 9.68901 51.116 9.68901 50.773V48.91C9.68901 48.567 9.96701 48.289 10.31 48.289C10.653 48.289 10.931 48.567 10.931 48.91V50.773C10.931 51.116 10.653 51.394 10.31 51.394Z" fill="#666666"/>
<path d="M12.173 51.394C11.83 51.394 11.552 51.116 11.552 50.773V48.91C11.552 48.567 11.83 48.289 12.173 48.289C12.516 48.289 12.794 48.567 12.794 48.91V50.773C12.794 51.116 12.516 51.394 12.173 51.394Z" fill="#666666"/>
<path d="M15.279 51.394C14.936 51.394 14.658 51.116 14.658 50.773V48.91C14.658 48.567 14.936 48.289 15.279 48.289C15.622 48.289 15.9 48.567 15.9 48.91V50.773C15.9 51.116 15.622 51.394 15.279 51.394Z" fill="#666666"/>
<path d="M17.142 50.773C16.799 50.773 16.521 50.495 16.521 50.152V48.91C16.521 48.567 16.799 48.289 17.142 48.289C17.485 48.289 17.763 48.567 17.763 48.91V50.152C17.763 50.495 17.485 50.773 17.142 50.773Z" fill="#666666"/>
<path d="M19.005 49.531C18.843 49.531 18.682 49.463 18.564 49.351C18.452 49.233 18.384 49.071 18.384 48.91C18.384 48.872 18.39 48.829 18.396 48.785C18.402 48.748 18.415 48.71 18.433 48.673C18.445 48.636 18.464 48.599 18.489 48.561C18.508 48.53 18.539 48.499 18.563 48.468C18.625 48.411 18.687 48.368 18.768 48.338C18.997 48.238 19.271 48.3 19.445 48.468C19.47 48.499 19.501 48.53 19.519 48.561C19.544 48.599 19.562 48.636 19.575 48.673C19.594 48.71 19.606 48.748 19.612 48.785C19.618 48.828 19.625 48.872 19.625 48.91C19.625 48.991 19.612 49.071 19.575 49.146C19.544 49.227 19.5 49.289 19.445 49.351C19.414 49.376 19.382 49.407 19.352 49.426C19.315 49.45 19.277 49.469 19.24 49.482C19.202 49.5 19.165 49.513 19.128 49.52C19.086 49.525 19.042 49.531 19.005 49.531Z" fill="#666666"/>
<path d="M22.732 61.953C19.307 61.953 16.521 59.167 16.521 55.742C16.521 52.318 19.307 49.531 22.732 49.531C26.157 49.531 28.943 52.318 28.943 55.742C28.943 59.167 26.157 61.953 22.732 61.953ZM22.732 50.773C19.992 50.773 17.763 53.002 17.763 55.742C17.763 58.482 19.992 60.711 22.732 60.711C25.472 60.711 27.701 58.482 27.701 55.742C27.701 53.002 25.472 50.773 22.732 50.773Z" fill="#666666"/>
<path d="M19.626 56.363L21.49 58.226L25.216 53.257" fill="white"/>
<path d="M21.49 58.847C21.326 58.847 21.168 58.782 21.051 58.665L19.188 56.802C18.945 56.559 18.945 56.166 19.188 55.924C19.431 55.682 19.824 55.681 20.066 55.924L21.423 57.281L24.72 52.885C24.926 52.611 25.315 52.555 25.59 52.761C25.864 52.967 25.92 53.356 25.714 53.63L21.987 58.599C21.879 58.744 21.714 58.833 21.534 58.846C21.519 58.847 21.504 58.847 21.49 58.847Z" fill="#666666"/>
<path d="M92.485 182.634C87.882 182.634 84.411 181.032 84.411 178.907C84.411 177.723 85.453 176.689 87.343 175.995C87.664 175.876 88.022 176.042 88.14 176.363C88.258 176.685 88.094 177.042 87.771 177.161C86.464 177.641 85.653 178.309 85.653 178.907C85.653 180.081 88.575 181.391 92.485 181.391C96.396 181.391 99.317 180.08 99.317 178.907C99.317 178.3 98.484 177.622 97.143 177.14C96.821 177.024 96.653 176.667 96.769 176.344C96.885 176.023 97.24 175.855 97.564 175.971C99.496 176.665 100.559 177.708 100.559 178.907C100.559 181.032 97.088 182.634 92.485 182.634Z" fill="#666666"/>
<path d="M92.485 179.528C92.287 179.528 92.101 179.434 91.984 179.274C91.675 178.852 84.411 168.891 84.411 164.622C84.411 160.169 88.033 156.548 92.485 156.548C96.937 156.548 100.559 160.169 100.559 164.622C100.559 168.892 93.295 178.852 92.986 179.274C92.869 179.435 92.683 179.528 92.485 179.528ZM92.485 157.79C88.718 157.79 85.653 160.854 85.653 164.622C85.653 167.595 90.194 174.614 92.485 177.845C94.776 174.615 99.317 167.595 99.317 164.622C99.317 160.854 96.252 157.79 92.485 157.79Z" fill="#666666"/>
<path d="M95.114 168.97C95.013 168.97 94.912 168.946 94.82 168.896L92.425 167.607L90.005 168.847C89.796 168.956 89.541 168.935 89.352 168.794C89.162 168.653 89.069 168.417 89.111 168.184L89.598 165.507L87.67 163.589C87.503 163.423 87.443 163.175 87.519 162.951C87.595 162.727 87.791 162.565 88.025 162.533L90.721 162.169L91.949 159.742C92.055 159.533 92.269 159.401 92.504 159.401C92.506 159.401 92.508 159.401 92.51 159.401C92.747 159.403 92.961 159.54 93.064 159.753L94.243 162.204L96.931 162.623C97.165 162.659 97.357 162.825 97.428 163.051C97.499 163.277 97.435 163.523 97.264 163.686L95.298 165.566L95.73 168.252C95.768 168.484 95.669 168.72 95.477 168.856C95.367 168.932 95.241 168.97 95.114 168.97ZM92.432 166.283C92.534 166.283 92.635 166.307 92.727 166.357L94.301 167.206L94.016 165.44C93.983 165.238 94.052 165.034 94.2 164.891L95.493 163.657L93.726 163.382C93.524 163.351 93.35 163.222 93.262 163.038L92.487 161.426L91.68 163.022C91.588 163.205 91.411 163.33 91.209 163.357L89.437 163.597L90.705 164.857C90.85 165.002 90.915 165.209 90.878 165.41L90.558 167.17L92.15 166.354C92.238 166.306 92.335 166.283 92.432 166.283Z" fill="#666666"/>
<path d="M81.995 29.153C77.415 29.153 73.689 25.427 73.689 20.847C73.689 16.267 77.415 12.541 81.995 12.541C85.883 12.541 89.21 15.183 90.087 18.965C90.19 19.412 89.912 19.858 89.465 19.962C89.022 20.066 88.572 19.788 88.468 19.34C87.766 16.315 85.106 14.202 81.995 14.202C78.331 14.202 75.35 17.183 75.35 20.847C75.35 24.511 78.331 27.492 81.995 27.492C82.264 27.492 82.529 27.476 82.789 27.445C83.244 27.392 83.658 27.716 83.712 28.172C83.767 28.628 83.441 29.041 82.986 29.095C82.659 29.134 82.326 29.153 81.995 29.153Z" fill="#666666"/>
<path d="M85.563 25.867H87.681C87.892 25.867 88.053 25.91 88.163 25.997C88.274 26.084 88.329 26.201 88.329 26.35C88.329 26.482 88.286 26.595 88.197 26.686C88.109 26.778 87.976 26.825 87.798 26.825H84.814C84.611 26.825 84.453 26.769 84.339 26.656C84.225 26.544 84.168 26.413 84.168 26.261C84.168 26.163 84.205 26.035 84.278 25.874C84.351 25.713 84.431 25.586 84.517 25.494C84.876 25.121 85.201 24.802 85.491 24.536C85.78 24.269 85.987 24.094 86.111 24.01C86.333 23.854 86.517 23.695 86.666 23.538C86.812 23.379 86.925 23.217 87.002 23.052C87.079 22.885 87.117 22.723 87.117 22.563C87.117 22.39 87.076 22.235 86.994 22.098C86.911 21.962 86.799 21.856 86.657 21.78C86.514 21.705 86.36 21.666 86.192 21.666C85.838 21.666 85.559 21.822 85.357 22.133C85.33 22.174 85.285 22.285 85.221 22.466C85.157 22.647 85.086 22.787 85.005 22.884C84.926 22.981 84.809 23.03 84.654 23.03C84.519 23.03 84.407 22.986 84.318 22.896C84.228 22.807 84.184 22.685 84.184 22.531C84.184 22.344 84.226 22.15 84.309 21.948C84.393 21.745 84.519 21.561 84.684 21.396C84.851 21.231 85.061 21.098 85.318 20.997C85.573 20.896 85.872 20.845 86.215 20.845C86.629 20.845 86.982 20.91 87.274 21.04C87.463 21.126 87.629 21.245 87.773 21.396C87.917 21.547 88.028 21.723 88.107 21.921C88.187 22.12 88.227 22.327 88.227 22.54C88.227 22.875 88.144 23.18 87.978 23.454C87.811 23.729 87.643 23.944 87.469 24.099C87.295 24.254 87.005 24.499 86.598 24.831C86.191 25.164 85.912 25.421 85.761 25.605C85.698 25.676 85.632 25.764 85.563 25.867Z" fill="#666666"/>
<path d="M91.554 26.309V25.555H89.518C89.261 25.555 89.069 25.496 88.939 25.381C88.811 25.265 88.747 25.107 88.747 24.906C88.747 24.855 88.756 24.803 88.776 24.749C88.796 24.697 88.823 24.642 88.861 24.584C88.899 24.525 88.938 24.47 88.978 24.415C89.019 24.361 89.069 24.295 89.128 24.217L91.277 21.342C91.418 21.153 91.533 21.016 91.623 20.93C91.714 20.846 91.824 20.803 91.95 20.803C92.361 20.803 92.567 21.039 92.567 21.509V24.648H92.741C92.949 24.648 93.116 24.677 93.243 24.733C93.368 24.79 93.431 24.914 93.431 25.106C93.431 25.263 93.379 25.377 93.277 25.448C93.174 25.521 93.021 25.556 92.815 25.556H92.568V26.31C92.568 26.518 92.521 26.672 92.43 26.775C92.337 26.876 92.215 26.926 92.06 26.926C91.91 26.926 91.788 26.874 91.693 26.769C91.601 26.665 91.554 26.511 91.554 26.309ZM89.811 24.646H91.554V22.29L89.811 24.646Z" fill="#666666"/>
<path d="M81.995 21.678C81.536 21.678 81.165 21.306 81.165 20.847V15.864C81.165 15.405 81.536 15.033 81.995 15.033C82.454 15.033 82.826 15.405 82.826 15.864V20.847C82.826 21.307 82.454 21.678 81.995 21.678Z" fill="#666666"/>
<path d="M81.995 21.678H78.673C78.214 21.678 77.843 21.306 77.843 20.847C77.843 20.389 78.214 20.016 78.673 20.016H81.995C82.454 20.016 82.826 20.388 82.826 20.847C82.826 21.307 82.454 21.678 81.995 21.678Z" fill="#666666"/>
<path d="M59.78 14.644H46.115C45.772 14.644 45.494 14.366 45.494 14.023C45.494 13.68 45.772 13.402 46.115 13.402H59.158V2.84301C59.158 2.50101 58.879 2.22201 58.537 2.22201H52.947C52.604 2.22201 52.326 1.94401 52.326 1.60101C52.326 1.25801 52.604 0.980011 52.947 0.980011H58.537C59.564 0.980011 60.4 1.81601 60.4 2.84301V14.023C60.401 14.366 60.123 14.644 59.78 14.644Z" fill="#666666"/>
<path d="M58.511 19.613H57.89C57.547 19.613 57.268 19.335 57.268 18.992C57.268 18.649 57.546 18.371 57.89 18.371H58.511C58.854 18.371 59.132 18.649 59.132 18.992C59.132 19.335 58.854 19.613 58.511 19.613Z" fill="#666666"/>
<path d="M69.717 19.613C69.374 19.613 69.096 19.335 69.096 18.992V14.644H46.736V18.371C47.079 18.371 47.357 18.649 47.357 18.992C47.357 19.335 47.079 19.613 46.736 19.613H46.115C45.772 19.613 45.494 19.335 45.494 18.992V14.023C45.494 13.68 45.772 13.402 46.115 13.402H69.717C70.06 13.402 70.338 13.68 70.338 14.023V18.992C70.338 19.335 70.061 19.613 69.717 19.613Z" fill="#666666"/>
<path d="M64.127 23.34C62.072 23.34 60.4 21.668 60.4 19.613C60.4 17.558 62.071 15.886 64.127 15.886C66.183 15.886 67.854 17.558 67.854 19.613C67.854 21.668 66.183 23.34 64.127 23.34ZM64.127 17.128C62.757 17.128 61.643 18.243 61.643 19.612C61.643 20.982 62.757 22.096 64.127 22.096C65.497 22.096 66.611 20.982 66.611 19.612C66.612 18.243 65.497 17.128 64.127 17.128Z" fill="#666666"/>
<path d="M52.326 23.34C50.271 23.34 48.599 21.668 48.599 19.613C48.599 17.558 50.271 15.886 52.326 15.886C54.381 15.886 56.053 17.558 56.053 19.613C56.053 21.668 54.381 23.34 52.326 23.34ZM52.326 17.128C50.956 17.128 49.842 18.243 49.842 19.612C49.842 20.982 50.957 22.096 52.326 22.096C53.696 22.096 54.81 20.982 54.81 19.612C54.811 18.243 53.696 17.128 52.326 17.128Z" fill="#666666"/>
<path d="M69.717 14.644H59.78C59.437 14.644 59.159 14.366 59.159 14.023V7.19101C59.159 6.84801 59.437 6.57001 59.78 6.57001H64.749C67.831 6.57001 70.339 9.07801 70.339 12.16V14.023C70.338 14.366 70.061 14.644 69.717 14.644ZM60.401 13.402H69.096V12.16C69.096 9.76301 67.146 7.81201 64.748 7.81201H60.4V13.402H60.401Z" fill="#666666"/>
<path d="M49.221 11.539H41.147C40.804 11.539 40.526 11.261 40.526 10.918C40.526 10.575 40.804 10.297 41.147 10.297H49.221C49.564 10.297 49.842 10.575 49.842 10.918C49.842 11.261 49.564 11.539 49.221 11.539Z" fill="#666666"/>
<path d="M49.221 7.81201H43.01C42.667 7.81201 42.389 7.53401 42.389 7.19101C42.389 6.84801 42.667 6.57001 43.01 6.57001H49.221C49.564 6.57001 49.842 6.84801 49.842 7.19101C49.842 7.53401 49.564 7.81201 49.221 7.81201Z" fill="#666666"/>
<path d="M49.221 4.08502H45.494C45.151 4.08502 44.873 3.80702 44.873 3.46402C44.873 3.12102 45.151 2.84302 45.494 2.84302H49.221C49.564 2.84302 49.842 3.12102 49.842 3.46402C49.842 3.80702 49.564 4.08502 49.221 4.08502Z" fill="#666666"/>
<path d="M183.449 203.314C182.972 203.314 182.496 203.132 182.133 202.769L181.254 201.891C181.012 201.648 181.012 201.255 181.254 201.012C182.223 200.043 182.223 198.467 181.254 197.498C180.285 196.53 178.709 196.53 177.74 197.498C177.498 197.741 177.105 197.741 176.863 197.498L175.984 196.62C175.632 196.268 175.437 195.8 175.437 195.303C175.437 194.805 175.632 194.336 175.984 193.985L190.916 179.053C191.643 178.325 192.824 178.326 193.551 179.053L194.43 179.931C194.672 180.174 194.672 180.567 194.43 180.81C193.461 181.778 193.461 183.355 194.43 184.324C195.399 185.292 196.975 185.292 197.944 184.324C198.186 184.081 198.581 184.081 198.823 184.324L199.7 185.202C200.054 185.554 200.247 186.022 200.247 186.519C200.247 187.017 200.054 187.485 199.7 187.837C199.458 188.078 199.065 188.078 198.823 187.836C198.581 187.593 198.581 187.2 198.823 186.957C198.94 186.84 199.005 186.685 199.005 186.519C199.005 186.353 198.941 186.198 198.823 186.08L198.346 185.604C196.893 186.639 194.856 186.505 193.551 185.202C192.248 183.898 192.115 181.862 193.149 180.407L192.674 179.931C192.432 179.689 192.037 179.689 191.795 179.931L176.863 194.864C176.744 194.982 176.679 195.137 176.679 195.303C176.679 195.468 176.743 195.624 176.863 195.741L177.338 196.217C178.793 195.183 180.828 195.316 182.133 196.62C183.436 197.924 183.571 199.96 182.535 201.415L183.012 201.891C183.254 202.133 183.649 202.133 183.889 201.891L196.69 189.091C196.932 188.849 197.325 188.849 197.567 189.091C197.811 189.334 197.811 189.727 197.567 189.969L184.768 202.769C184.404 203.133 183.928 203.314 183.449 203.314Z" fill="#666666"/>
<path d="M185.855 190.642C186.236 191.024 186.437 191.392 186.455 191.746C186.473 192.1 186.336 192.424 186.043 192.716C185.863 192.897 185.662 193.019 185.439 193.082C185.218 193.146 184.982 193.135 184.734 193.046C184.486 192.958 184.242 192.793 184 192.551C183.738 192.29 183.553 192.042 183.441 191.807C183.328 191.571 183.296 191.337 183.345 191.109C183.394 190.88 183.527 190.657 183.743 190.441C183.899 190.285 184.059 190.171 184.225 190.102C184.393 190.032 184.565 190.004 184.746 190.022C184.928 190.039 185.109 190.099 185.291 190.201C185.473 190.303 185.662 190.449 185.855 190.642ZM185.264 191.173C185.002 190.911 184.782 190.748 184.608 190.685C184.432 190.622 184.274 190.662 184.131 190.804C184.035 190.9 183.986 191.004 183.988 191.119C183.986 191.232 184.031 191.355 184.123 191.488C184.213 191.62 184.344 191.772 184.516 191.944C184.694 192.122 184.85 192.257 184.983 192.347C185.116 192.438 185.239 192.485 185.352 192.486C185.465 192.487 185.571 192.438 185.668 192.34C185.816 192.192 185.854 192.027 185.781 191.849C185.707 191.671 185.535 191.445 185.264 191.173ZM187.098 187.88L188.629 194.412C188.676 194.587 188.658 194.713 188.578 194.793C188.531 194.84 188.469 194.868 188.387 194.879C188.307 194.89 188.239 194.867 188.182 194.812C188.139 194.77 188.108 194.699 188.088 194.598L186.539 188.018C186.51 187.9 186.492 187.806 186.488 187.736C186.484 187.666 186.513 187.6 186.574 187.538C186.635 187.477 186.701 187.447 186.773 187.445C186.845 187.443 186.91 187.47 186.968 187.529C187.01 187.57 187.053 187.688 187.098 187.88ZM191.1 189.738C191.483 190.12 191.682 190.488 191.7 190.842C191.72 191.196 191.581 191.519 191.29 191.812C191.108 191.994 190.905 192.117 190.683 192.179C190.458 192.242 190.224 192.232 189.976 192.147C189.73 192.062 189.484 191.897 189.24 191.653C188.849 191.262 188.631 190.894 188.582 190.548C188.535 190.202 188.672 189.867 188.996 189.543C189.152 189.387 189.314 189.273 189.478 189.205C189.644 189.136 189.816 189.107 189.996 189.121C190.174 189.134 190.355 189.192 190.539 189.295C190.723 189.398 190.908 189.546 191.1 189.738ZM190.508 190.27C190.25 190.011 190.033 189.85 189.858 189.789C189.684 189.725 189.524 189.765 189.383 189.907C189.281 190.007 189.233 190.113 189.233 190.225C189.233 190.336 189.276 190.458 189.362 190.59C189.448 190.723 189.579 190.876 189.753 191.05C190.021 191.319 190.245 191.486 190.427 191.553C190.607 191.619 190.771 191.581 190.915 191.437C191.06 191.291 191.097 191.128 191.024 190.947C190.949 190.765 190.779 190.539 190.508 190.27Z" fill="#666666"/>
</g>
</svg>
