<svg width="48" height="39" viewBox="0 0 48 39" fill="none" xmlns="http://www.w3.org/2000/svg">
<path fill-rule="evenodd" clip-rule="evenodd" d="M34.26 37.383C35.618 37.383 36.72 36.28 36.72 34.922C36.72 33.565 35.617 32.46 34.26 32.46C32.903 32.46 31.799 33.564 31.799 34.922C31.799 36.28 32.902 37.383 34.26 37.383ZM34.26 31.477C36.159 31.477 37.705 33.023 37.705 34.922C37.705 36.821 36.16 38.367 34.26 38.367C32.36 38.367 30.815 36.821 30.815 34.922C30.815 33.023 32.36 31.477 34.26 31.477ZM15.558 37.383C16.916 37.383 18.018 36.28 18.018 34.922C18.018 33.565 16.915 32.46 15.558 32.46C14.199 32.46 13.097 33.564 13.097 34.922C13.097 36.28 14.199 37.383 15.558 37.383ZM15.558 31.477C17.458 31.477 19.003 33.023 19.003 34.922C19.003 36.821 17.459 38.367 15.558 38.367C13.658 38.367 12.113 36.821 12.113 34.922C12.113 33.023 13.658 31.477 15.558 31.477ZM34.751 11.791V16.711H42.901L45.018 11.791H34.751ZM26.877 17.696V22.619H33.767V17.696H26.877ZM33.767 11.791H26.877V16.711H33.767V11.791ZM19.003 17.696V22.619H25.893V17.696H19.003ZM25.893 11.791H19.003V16.711H25.893V11.791ZM10.469 17.696L11.463 22.619H18.019V17.696H10.469ZM18.019 11.791H9.288L10.272 16.711H18.019V11.791ZM12.645 28.523H18.019V23.602H11.66L12.645 28.523ZM25.893 28.523V23.602H19.003V28.523H25.893ZM33.767 28.523V23.602H26.877V28.523H33.767ZM37.813 28.523L39.939 23.602H34.751V28.523H37.813ZM34.751 22.619H40.362L42.478 17.696H34.751V22.619ZM47.419 11.201L39.368 29.902C39.21 30.256 38.856 30.493 38.462 30.493H11.837C11.375 30.493 10.971 30.157 10.873 29.705L5.498 2.933H1.286C0.744001 2.933 0.302002 2.49 0.302002 1.948C0.302002 1.406 0.745001 0.962997 1.286 0.962997H6.306C6.768 0.962997 7.172 1.298 7.27 1.751L8.885 9.823H46.514C46.848 9.823 47.154 9.99 47.331 10.266C47.518 10.541 47.547 10.895 47.419 11.201Z" fill="#F01658"/>
</svg>
