<svg width="33" height="36" viewBox="0 0 33 36" fill="none" xmlns="http://www.w3.org/2000/svg">
<path fill-rule="evenodd" clip-rule="evenodd" d="M28.035 21.797C26.873 25.071 20.508 26.787 14.187 26.787C11.263 26.787 8.33201 26.414 5.90201 25.693C7.33801 27.638 12.197 29.065 17.986 29.065C24.906 29.065 30.519 27.022 30.519 24.508C30.52 23.491 29.584 22.549 28.035 21.797ZM29 13.753V10.935C28.529 11.178 28.027 11.406 27.48 11.611V14.558C28.064 14.316 28.566 14.042 29 13.753ZM29.76 13.146C30.244 12.667 30.52 12.144 30.52 11.597V9.93301C30.291 10.13 30.034 10.313 29.76 10.488V13.146ZM17.986 2.48202C11.066 2.48202 5.453 4.52502 5.453 7.03902C5.453 9.55302 11.066 11.597 17.986 11.597C24.906 11.597 30.519 9.55402 30.519 7.03902C30.519 4.52402 24.906 2.48202 17.986 2.48202ZM6.21301 13.146V10.488C5.94001 10.313 5.682 10.131 5.453 9.93301V11.597C5.453 12.144 5.72701 12.66 6.21301 13.146ZM8.492 14.559V11.604C7.953 11.399 7.43498 11.187 6.97198 10.943V13.776C7.39798 14.058 7.922 14.316 8.492 14.559ZM10.77 15.311V12.295C10.254 12.166 9.73101 12.037 9.25201 11.885V14.855C9.72301 15.022 10.23 15.174 10.77 15.311ZM13.049 15.774V12.743C12.533 12.667 12.024 12.576 11.529 12.47V15.493C12.016 15.6 12.525 15.69 13.049 15.774ZM15.328 16.032V12.994C14.818 12.948 14.31 12.903 13.808 12.842V15.88C14.303 15.941 14.811 15.987 15.328 16.032ZM17.605 16.139V13.101C17.097 13.094 16.587 13.086 16.087 13.055V16.086C16.58 16.116 17.09 16.131 17.605 16.139ZM19.885 16.093V13.054C19.383 13.085 18.875 13.108 18.365 13.108V16.146C18.883 16.139 19.383 16.124 19.885 16.093ZM22.164 15.88V12.85C21.662 12.911 21.152 12.964 20.644 13.002V16.04C21.168 16.002 21.67 15.949 22.164 15.88ZM24.441 15.493V12.462C23.947 12.561 23.439 12.659 22.923 12.735V15.773C23.447 15.69 23.957 15.6 24.441 15.493ZM26.721 14.847V11.87C26.235 12.03 25.727 12.174 25.201 12.296V15.312C25.748 15.174 26.242 15.015 26.721 14.847ZM25.961 19.602V22.261C26.447 21.782 26.721 21.259 26.721 20.711V19.048C26.492 19.245 26.234 19.428 25.961 19.602ZM23.684 20.727V23.674C24.268 23.431 24.77 23.158 25.202 22.869V20.051C24.73 20.293 24.229 20.521 23.684 20.727ZM21.404 21.41V24.426C21.951 24.289 22.445 24.13 22.924 23.963V20.985C22.438 21.144 21.928 21.288 21.404 21.41ZM19.125 21.851V24.889C19.65 24.806 20.158 24.714 20.645 24.608V21.578C20.15 21.676 19.641 21.774 19.125 21.851ZM16.848 22.116V25.155C17.371 25.116 17.871 25.064 18.366 24.995V21.964C17.865 22.025 17.355 22.078 16.848 22.116ZM14.568 22.223V25.262C15.084 25.254 15.586 25.24 16.088 25.208V22.17C15.586 22.2 15.076 22.223 14.568 22.223ZM12.289 22.169V25.199C12.783 25.23 13.291 25.246 13.809 25.253V22.214C13.299 22.208 12.791 22.2 12.289 22.169ZM10.01 21.957V24.995C10.504 25.056 11.014 25.101 11.53 25.147V22.108C11.021 22.063 10.512 22.018 10.01 21.957ZM7.73199 21.584V24.607C8.21799 24.713 8.72601 24.805 9.25201 24.888V21.857C8.73401 21.782 8.22699 21.691 7.73199 21.584ZM4.42801 13.298C2.69801 14.08 1.65701 15.075 1.65701 16.153C1.65701 18.667 7.26999 20.71 14.188 20.71C20.821 20.71 26.243 18.834 26.676 16.464C24.176 17.261 21.071 17.672 17.987 17.672C12.076 17.673 6.12901 16.176 4.42801 13.298ZM1.65601 20.711C1.65601 21.258 1.92899 21.774 2.41599 22.261V19.602C2.14299 19.428 1.88301 19.245 1.65601 19.048V20.711ZM3.17401 22.891C3.60001 23.172 4.125 23.431 4.694 23.673V20.718C4.155 20.513 3.63901 20.3 3.17401 20.057V22.891ZM5.453 23.97C5.924 24.137 6.43299 24.289 6.97299 24.426V21.41C6.45499 21.281 5.932 21.152 5.453 21V23.97ZM5.453 29.066C5.453 29.614 5.72601 30.129 6.21301 30.616V27.958C5.94001 27.783 5.682 27.601 5.453 27.403V29.066ZM6.97299 31.247C7.39899 31.527 7.92201 31.785 8.49301 32.029V29.074C7.95401 28.869 7.43599 28.657 6.97299 28.414V31.247ZM9.25201 32.325C9.72301 32.492 10.231 32.644 10.77 32.781V29.764C10.254 29.635 9.73101 29.506 9.25201 29.355V32.325ZM11.529 32.963C12.015 33.068 12.525 33.16 13.049 33.243V30.212C12.533 30.137 12.024 30.046 11.529 29.94V32.963ZM13.809 33.35C14.303 33.411 14.811 33.456 15.329 33.501V30.463C14.819 30.418 14.311 30.372 13.809 30.312V33.35ZM16.088 33.555C16.58 33.586 17.09 33.601 17.606 33.608V30.57C17.098 30.563 16.588 30.555 16.088 30.524V33.555ZM18.365 33.616C18.883 33.608 19.383 33.594 19.885 33.562V30.524C19.383 30.555 18.875 30.578 18.365 30.578V33.616ZM20.645 33.509C21.168 33.472 21.67 33.418 22.165 33.35V30.32C21.663 30.381 21.153 30.434 20.645 30.471V33.509ZM22.924 33.244C23.447 33.161 23.957 33.069 24.442 32.964V29.933C23.948 30.032 23.44 30.13 22.924 30.206V33.244ZM25.201 32.781C25.748 32.644 26.242 32.484 26.721 32.317V29.339C26.235 29.499 25.727 29.643 25.201 29.764V32.781ZM27.48 32.029C28.064 31.785 28.566 31.512 29 31.223V28.406C28.529 28.649 28.027 28.877 27.48 29.082V32.029ZM30.52 27.403C30.291 27.6 30.034 27.783 29.76 27.958V30.616C30.244 30.137 30.52 29.614 30.52 29.066V27.403ZM28.24 20.233C30.533 21.251 32.037 22.678 32.037 24.509V29.066C32.037 33.053 24.967 35.142 17.986 35.142C11.005 35.142 3.93301 33.053 3.93301 29.066V24.987C1.64001 23.969 0.135986 22.542 0.135986 20.711V16.154C0.135986 14.308 1.65599 12.881 3.96399 11.87C3.95599 11.779 3.93301 11.688 3.93301 11.597V7.03902C3.93301 3.05202 11.005 0.963013 17.986 0.963013C24.967 0.963013 32.037 3.05202 32.037 7.03902V11.597C32.037 13.443 30.519 14.87 28.209 15.881C28.217 15.972 28.24 16.063 28.24 16.154V20.233Z" fill="#F01658"/>
</svg>
